<svg xmlns="http://www.w3.org/2000/svg" xmlns:xlink="http://www.w3.org/1999/xlink" width="90" zoomAndPan="magnify" viewBox="0 0 67.5 44.999999" height="60" preserveAspectRatio="xMidYMid meet" version="1.0"><defs><clipPath id="8c889fa28d"><path d="M 3.292969 7.984375 L 63.59375 7.984375 L 63.59375 26 L 3.292969 26 Z M 3.292969 7.984375 " clip-rule="nonzero"/></clipPath><clipPath id="42ae2128fa"><path d="M 23 21 L 32 21 L 32 37.019531 L 23 37.019531 Z M 23 21 " clip-rule="nonzero"/></clipPath></defs><g clip-path="url(#8c889fa28d)"><path fill="#ffffff" d="M 57.007812 15.746094 C 56.824219 16.066406 56.667969 16.328125 56.519531 16.59375 C 56.113281 17.332031 55.53125 17.890625 54.800781 18.292969 C 54.59375 18.40625 54.484375 18.546875 54.414062 18.769531 C 54.300781 19.152344 54.113281 19.5 53.875 19.820312 C 52.957031 21.046875 51.355469 21.007812 50.496094 19.738281 C 50.363281 19.542969 50.265625 19.324219 50.164062 19.066406 C 50.023438 19.234375 49.917969 19.386719 49.789062 19.515625 C 49.238281 20.085938 48.496094 19.980469 48.128906 19.28125 C 47.863281 18.777344 47.804688 18.222656 47.785156 17.664062 C 47.761719 16.972656 47.789062 16.277344 47.640625 15.597656 C 47.601562 15.40625 47.597656 15.136719 47.371094 15.09375 C 47.152344 15.054688 47.035156 15.289062 46.914062 15.453125 C 46.617188 15.847656 46.449219 16.304688 46.289062 16.765625 C 46.246094 16.894531 46.199219 17.027344 46.132812 17.140625 C 46.023438 17.320312 45.847656 17.398438 45.636719 17.371094 C 45.4375 17.34375 45.316406 17.226562 45.242188 17.039062 C 45.195312 16.90625 45.191406 16.773438 45.179688 16.636719 C 45.144531 16.175781 45.132812 15.707031 44.9375 15.273438 C 44.773438 14.898438 44.617188 14.871094 44.351562 15.183594 C 43.898438 15.703125 43.707031 16.347656 43.5625 17.003906 C 43.488281 17.347656 43.460938 17.699219 43.46875 18.050781 C 43.476562 18.511719 43.292969 18.753906 42.960938 18.75 C 42.605469 18.742188 42.375 18.445312 42.390625 18.007812 C 42.421875 17.101562 42.449219 16.195312 42.335938 15.289062 C 42.316406 15.125 42.28125 14.964844 42.242188 14.757812 C 42.074219 14.894531 42 15.050781 41.925781 15.195312 C 41.613281 15.773438 41.3125 16.359375 41.003906 16.9375 C 40.851562 17.21875 40.675781 17.480469 40.4375 17.699219 C 39.847656 18.242188 39.160156 18.132812 38.765625 17.4375 C 38.71875 17.359375 38.679688 17.277344 38.617188 17.164062 C 38.160156 17.875 37.550781 18.324219 36.683594 18.222656 C 35.828125 18.125 35.273438 17.605469 34.929688 16.789062 C 34.808594 16.957031 34.703125 17.113281 34.589844 17.257812 C 33.996094 18.03125 33.09375 18.035156 32.488281 17.269531 C 32.21875 16.929688 32.066406 16.53125 31.90625 16.050781 C 31.53125 16.898438 31.105469 17.667969 30.128906 17.71875 C 29.160156 17.765625 28.617188 17.113281 28.207031 16.277344 C 27.75 17.25 27.121094 18 26.015625 18.066406 C 24.941406 18.128906 24.183594 17.523438 23.574219 16.660156 C 23.398438 17.003906 23.265625 17.335938 23.058594 17.628906 C 22.261719 18.75 21.039062 18.953125 19.953125 18.109375 C 18.902344 17.289062 18.578125 16.1875 18.808594 14.828125 C 18.292969 15.230469 17.835938 15.625 17.429688 16.066406 C 17.304688 16.199219 17.40625 16.417969 17.421875 16.597656 C 17.496094 17.363281 17.582031 18.132812 17.527344 18.90625 C 17.515625 19.050781 17.503906 19.203125 17.460938 19.339844 C 17.378906 19.59375 17.207031 19.757812 16.929688 19.722656 C 16.636719 19.6875 16.503906 19.484375 16.484375 19.207031 C 16.480469 19.128906 16.496094 19.046875 16.503906 18.96875 C 16.574219 18.3125 16.488281 17.664062 16.4375 16.972656 C 15.960938 17.335938 15.535156 17.6875 15.085938 18.003906 C 13.984375 18.789062 12.800781 19.390625 11.464844 19.660156 C 11.296875 19.691406 11.238281 19.761719 11.238281 19.925781 C 11.246094 21.5 11.199219 23.078125 11.398438 24.648438 C 11.4375 24.980469 11.296875 25.21875 11.027344 25.285156 C 10.761719 25.347656 10.515625 25.191406 10.421875 24.867188 C 10.285156 24.394531 10.285156 23.902344 10.269531 23.414062 C 10.238281 22.304688 10.222656 21.191406 10.210938 20.082031 C 10.210938 19.863281 10.15625 19.796875 9.929688 19.785156 C 7.398438 19.660156 5.363281 18.519531 3.65625 16.707031 C 3.535156 16.578125 3.421875 16.429688 3.371094 16.25 C 3.296875 15.992188 3.351562 15.769531 3.597656 15.636719 C 3.84375 15.503906 4.054688 15.582031 4.226562 15.792969 C 5.472656 17.335938 7.078125 18.28125 9.015625 18.675781 C 9.3125 18.738281 9.625 18.734375 9.925781 18.777344 C 10.179688 18.8125 10.257812 18.71875 10.261719 18.464844 C 10.28125 17.273438 10.375 16.085938 10.527344 14.902344 C 10.710938 13.519531 10.96875 12.148438 11.546875 10.863281 C 11.816406 10.261719 12.144531 9.691406 12.621094 9.222656 C 13.6875 8.179688 14.9375 8.320312 15.730469 9.589844 C 16.296875 10.496094 16.554688 11.523438 16.78125 12.550781 C 16.945312 13.292969 17.074219 14.042969 17.21875 14.808594 C 17.382812 14.761719 17.484375 14.617188 17.605469 14.515625 C 18.347656 13.878906 19.105469 13.261719 20.085938 13.023438 C 20.585938 12.90625 21.078125 12.9375 21.558594 13.109375 C 21.898438 13.230469 22.058594 13.46875 21.988281 13.742188 C 21.914062 14.042969 21.675781 14.164062 21.296875 14.097656 C 20.574219 13.96875 20.054688 14.285156 19.835938 14.992188 C 19.558594 15.886719 19.890625 16.878906 20.636719 17.371094 C 21.214844 17.753906 21.726562 17.675781 22.160156 17.136719 C 22.386719 16.859375 22.535156 16.542969 22.636719 16.203125 C 22.828125 15.566406 23.074219 14.945312 23.15625 14.273438 C 23.234375 13.652344 23.492188 13.09375 23.992188 12.6875 C 24.46875 12.300781 25.007812 12.195312 25.585938 12.4375 C 26.105469 12.652344 26.40625 13.058594 26.4375 13.613281 C 26.476562 14.347656 26.09375 14.882812 25.511719 15.289062 C 25.199219 15.507812 24.847656 15.632812 24.46875 15.675781 C 24.269531 15.695312 24.25 15.769531 24.335938 15.9375 C 24.5 16.257812 24.714844 16.53125 25 16.742188 C 25.695312 17.253906 26.457031 17.136719 26.957031 16.433594 C 27.410156 15.792969 27.558594 15.046875 27.675781 14.296875 C 27.738281 13.902344 27.769531 13.507812 27.8125 13.113281 C 27.851562 12.730469 28.070312 12.496094 28.375 12.515625 C 28.660156 12.535156 28.84375 12.773438 28.835938 13.160156 C 28.816406 13.980469 28.828125 14.792969 29.042969 15.589844 C 29.125 15.902344 29.25 16.191406 29.472656 16.429688 C 29.839844 16.820312 30.277344 16.800781 30.597656 16.363281 C 30.894531 15.953125 31.03125 15.472656 31.152344 14.984375 C 31.390625 13.988281 31.460938 12.96875 31.542969 11.953125 C 31.570312 11.636719 31.371094 11.757812 31.246094 11.785156 C 30.46875 11.953125 29.695312 11.996094 28.925781 11.773438 C 28.167969 11.554688 27.550781 11.132812 27.105469 10.480469 C 26.949219 10.253906 26.828125 10.003906 26.929688 9.714844 C 27.003906 9.496094 27.152344 9.375 27.382812 9.367188 C 27.597656 9.355469 27.753906 9.460938 27.835938 9.65625 C 28.164062 10.472656 28.84375 10.78125 29.648438 10.882812 C 30.214844 10.957031 30.777344 10.863281 31.335938 10.734375 C 31.527344 10.6875 31.613281 10.597656 31.613281 10.386719 C 31.609375 9.84375 31.628906 9.300781 31.644531 8.753906 C 31.648438 8.632812 31.660156 8.507812 31.683594 8.386719 C 31.746094 8.128906 31.925781 7.988281 32.175781 7.988281 C 32.421875 7.988281 32.609375 8.125 32.667969 8.378906 C 32.773438 8.8125 32.714844 9.257812 32.734375 9.699219 C 32.757812 10.242188 32.746094 10.242188 33.238281 10.019531 C 34.277344 9.550781 35.300781 9.03125 36.433594 8.800781 C 38.09375 8.464844 39.578125 9.019531 40.40625 10.296875 C 40.464844 10.382812 40.519531 10.46875 40.550781 10.566406 C 40.632812 10.804688 40.589844 11.023438 40.367188 11.164062 C 40.148438 11.300781 39.933594 11.257812 39.746094 11.078125 C 39.707031 11.039062 39.667969 10.996094 39.636719 10.949219 C 38.878906 9.753906 37.761719 9.554688 36.480469 9.828125 C 35.609375 10.011719 34.816406 10.40625 34.011719 10.769531 C 33.847656 10.84375 33.691406 10.957031 33.519531 10.992188 C 32.839844 11.140625 32.683594 11.554688 32.71875 12.214844 C 32.777344 13.324219 32.699219 14.4375 32.859375 15.542969 C 32.914062 15.941406 33.027344 16.320312 33.277344 16.640625 C 33.464844 16.878906 33.609375 16.878906 33.796875 16.640625 C 34.046875 16.328125 34.195312 15.957031 34.347656 15.589844 C 34.59375 15.007812 34.796875 14.402344 35.113281 13.851562 C 35.890625 12.503906 37.308594 12.191406 38.597656 13.070312 C 39.007812 13.355469 39.175781 13.816406 39.464844 14.183594 C 39.523438 14.261719 39.507812 14.375 39.484375 14.480469 C 39.3125 15.214844 39.425781 15.945312 39.539062 16.671875 C 39.554688 16.78125 39.574219 16.9375 39.683594 16.960938 C 39.816406 16.992188 39.875 16.832031 39.941406 16.738281 C 40.324219 16.171875 40.585938 15.542969 40.910156 14.945312 C 41.097656 14.59375 41.289062 14.246094 41.554688 13.949219 C 42.125 13.308594 42.796875 13.421875 43.117188 14.214844 C 43.191406 14.402344 43.238281 14.601562 43.3125 14.84375 C 43.691406 14.378906 44.074219 13.925781 44.71875 13.949219 C 45.394531 13.976562 45.695312 14.488281 45.953125 15.042969 C 46.160156 14.777344 46.339844 14.53125 46.585938 14.34375 C 47.269531 13.824219 48.007812 13.984375 48.40625 14.746094 C 48.714844 15.347656 48.75 16.007812 48.777344 16.664062 C 48.800781 17.199219 48.769531 17.734375 48.855469 18.261719 C 48.886719 18.453125 48.925781 18.636719 49.027344 18.820312 C 49.226562 18.683594 49.308594 18.480469 49.402344 18.292969 C 49.613281 17.851562 49.757812 17.382812 49.84375 16.90625 C 49.941406 16.367188 50.1875 15.898438 50.441406 15.4375 C 51.226562 14.011719 53.214844 13.964844 54.152344 15.339844 C 54.445312 15.769531 54.59375 16.253906 54.652344 16.769531 C 54.660156 16.882812 54.675781 16.992188 54.695312 17.136719 C 55.066406 16.925781 55.316406 16.640625 55.507812 16.3125 C 55.847656 15.734375 56.164062 15.144531 56.492188 14.5625 C 56.546875 14.464844 56.53125 14.371094 56.523438 14.265625 C 56.472656 13.101562 57.382812 12.214844 58.539062 12.304688 C 58.890625 12.332031 59.121094 12.53125 59.121094 12.808594 C 59.121094 13.089844 58.902344 13.285156 58.546875 13.316406 C 58.433594 13.328125 58.320312 13.320312 58.207031 13.335938 C 57.832031 13.386719 57.59375 13.628906 57.554688 14.007812 C 57.519531 14.355469 57.605469 14.683594 57.753906 14.996094 C 58.023438 15.5625 58.40625 16.054688 58.789062 16.546875 C 59.136719 16.996094 59.496094 17.4375 59.769531 17.9375 C 59.855469 18.09375 59.9375 18.144531 60.113281 18.054688 C 61.570312 17.316406 62.578125 16.253906 62.6875 14.535156 C 62.6875 14.511719 62.6875 14.492188 62.691406 14.46875 C 62.738281 14.105469 62.933594 13.898438 63.21875 13.914062 C 63.5 13.929688 63.6875 14.152344 63.699219 14.511719 C 63.71875 15.308594 63.46875 16.03125 63.074219 16.707031 C 62.480469 17.71875 61.632812 18.453125 60.574219 18.9375 C 60.335938 19.050781 60.273438 19.164062 60.324219 19.425781 C 60.484375 20.304688 60.113281 21.15625 59.378906 21.589844 C 58.570312 22.066406 57.761719 22.039062 56.972656 21.53125 C 56.808594 21.429688 56.671875 21.292969 56.550781 21.140625 C 55.976562 20.417969 56.140625 19.578125 56.949219 19.132812 C 57.441406 18.863281 57.992188 18.753906 58.523438 18.597656 C 58.941406 18.476562 58.945312 18.476562 58.710938 18.128906 C 58.175781 17.328125 57.507812 16.625 57.007812 15.75 Z M 11.3125 17.679688 C 11.300781 17.894531 11.296875 18.109375 11.273438 18.324219 C 11.242188 18.585938 11.285156 18.683594 11.59375 18.601562 C 13.40625 18.121094 14.84375 17.039062 16.191406 15.808594 C 16.277344 15.730469 16.292969 15.644531 16.277344 15.535156 C 16.066406 14.007812 15.824219 12.488281 15.308594 11.027344 C 15.160156 10.609375 14.980469 10.207031 14.691406 9.867188 C 14.375 9.5 14.007812 9.453125 13.605469 9.71875 C 13.355469 9.882812 13.15625 10.101562 12.988281 10.34375 C 12.523438 11 12.238281 11.738281 12.027344 12.507812 C 11.5625 14.199219 11.410156 15.933594 11.3125 17.679688 Z M 38.183594 14.753906 C 38.167969 14.578125 38.257812 14.328125 38.089844 14.097656 C 37.734375 13.625 37.125 13.523438 36.660156 13.925781 C 35.941406 14.542969 35.6875 15.34375 35.855469 16.273438 C 35.945312 16.789062 36.308594 17.15625 36.75 17.214844 C 37.183594 17.273438 37.503906 17.078125 37.769531 16.585938 C 38.066406 16.035156 38.175781 15.4375 38.183594 14.753906 Z M 53.652344 17.171875 C 53.644531 16.578125 53.507812 16.125 53.242188 15.800781 C 52.8125 15.273438 52.039062 15.203125 51.550781 15.640625 C 51.054688 16.085938 51.042969 16.847656 51.527344 17.332031 C 51.941406 17.746094 52.453125 17.871094 53.019531 17.839844 C 53.628906 17.804688 53.664062 17.769531 53.652344 17.167969 Z M 58.125 20.902344 C 58.925781 20.902344 59.425781 20.359375 59.34375 19.679688 C 59.332031 19.574219 59.339844 19.417969 59.164062 19.46875 C 58.578125 19.640625 57.972656 19.746094 57.421875 20.019531 C 57.203125 20.128906 57.179688 20.304688 57.328125 20.492188 C 57.546875 20.785156 57.859375 20.898438 58.125 20.90625 Z M 53.253906 18.839844 C 52.453125 18.9375 51.730469 18.738281 51.0625 18.285156 C 51.089844 19.019531 51.523438 19.605469 52.070312 19.683594 C 52.578125 19.757812 53.035156 19.441406 53.253906 18.835938 Z M 24.144531 14.492188 C 24.109375 14.664062 24.195312 14.695312 24.335938 14.675781 C 24.753906 14.621094 25.097656 14.453125 25.316406 14.085938 C 25.445312 13.875 25.527344 13.644531 25.308594 13.4375 C 25.132812 13.269531 24.816406 13.292969 24.597656 13.496094 C 24.308594 13.765625 24.207031 14.125 24.144531 14.492188 Z M 24.144531 14.492188 " fill-opacity="1" fill-rule="nonzero"/></g><g clip-path="url(#42ae2128fa)"><path fill="#ffffff" d="M 23.089844 24.050781 C 23.089844 23.699219 23.097656 23.347656 23.085938 22.996094 C 23.074219 22.445312 23.277344 22.097656 23.792969 21.925781 C 26.242188 21.121094 30.210938 22.003906 30.921875 25.734375 C 31.363281 28.046875 30.574219 29.972656 28.882812 31.550781 C 27.933594 32.441406 26.78125 32.957031 25.515625 33.210938 C 25.226562 33.265625 25.148438 33.382812 25.171875 33.65625 C 25.246094 34.449219 25.3125 35.238281 25.3125 36.03125 C 25.316406 36.625 24.996094 37.007812 24.507812 37.003906 C 24.027344 37 23.691406 36.601562 23.660156 36.035156 C 23.558594 34.15625 23.441406 32.28125 23.339844 30.40625 C 23.277344 29.238281 23.226562 28.070312 23.195312 26.90625 C 23.171875 25.957031 23.191406 25.003906 23.191406 24.050781 C 23.15625 24.050781 23.121094 24.050781 23.089844 24.050781 Z M 25.585938 23.347656 C 25.429688 23.347656 25.269531 23.359375 25.109375 23.34375 C 24.816406 23.316406 24.746094 23.449219 24.761719 23.722656 C 24.796875 24.34375 24.808594 24.964844 24.832031 25.589844 C 24.878906 26.980469 24.910156 28.375 24.984375 29.761719 C 25.011719 30.273438 25.023438 30.78125 25.050781 31.289062 C 25.058594 31.4375 25.042969 31.613281 25.3125 31.550781 C 27.164062 31.105469 28.511719 30.054688 29.136719 28.234375 C 29.621094 26.828125 29.46875 25.472656 28.382812 24.355469 C 27.625 23.578125 26.628906 23.367188 25.585938 23.347656 Z M 25.585938 23.347656 " fill-opacity="1" fill-rule="nonzero"/></g><path fill="#ffffff" d="M 41.277344 31.492188 C 41.402344 31.5625 41.425781 31.679688 41.476562 31.777344 C 42.210938 33.191406 42.945312 34.609375 43.679688 36.027344 C 43.773438 36.207031 43.855469 36.394531 44 36.542969 C 44.265625 36.816406 44.644531 36.886719 44.96875 36.726562 C 45.292969 36.566406 45.457031 36.222656 45.398438 35.84375 C 45.367188 35.636719 45.265625 35.460938 45.171875 35.28125 C 44.207031 33.410156 43.238281 31.539062 42.261719 29.675781 C 42.148438 29.453125 42.136719 29.269531 42.230469 29.039062 C 42.972656 27.179688 43.699219 25.3125 44.433594 23.445312 C 44.503906 23.265625 44.578125 23.089844 44.578125 22.890625 C 44.574219 22.496094 44.367188 22.195312 44.015625 22.085938 C 43.671875 21.976562 43.304688 22.09375 43.09375 22.410156 C 42.992188 22.558594 42.921875 22.730469 42.855469 22.898438 C 42.308594 24.277344 41.769531 25.65625 41.222656 27.039062 C 41.1875 27.128906 41.175781 27.238281 41.054688 27.320312 C 40.65625 26.53125 40.261719 25.746094 39.867188 24.960938 C 39.46875 24.171875 39.078125 23.382812 38.675781 22.597656 C 38.597656 22.4375 38.5 22.277344 38.382812 22.144531 C 38.09375 21.816406 37.640625 21.761719 37.304688 21.984375 C 36.945312 22.226562 36.839844 22.652344 37.046875 23.066406 C 38.066406 25.089844 39.082031 27.109375 40.109375 29.125 C 40.226562 29.355469 40.25 29.546875 40.148438 29.792969 C 39.464844 31.507812 38.792969 33.226562 38.117188 34.945312 C 38.074219 35.058594 38.027344 35.175781 38 35.296875 C 37.898438 35.722656 38.089844 36.128906 38.460938 36.285156 C 38.855469 36.453125 39.289062 36.308594 39.507812 35.90625 C 39.644531 35.652344 39.75 35.371094 39.855469 35.097656 C 40.289062 34 40.714844 32.90625 41.144531 31.808594 C 41.1875 31.703125 41.230469 31.601562 41.277344 31.496094 Z M 41.277344 31.492188 " fill-opacity="1" fill-rule="nonzero"/><path fill="#ffffff" d="M 34.558594 29.242188 C 34.652344 31.503906 34.558594 33.714844 34.601562 35.929688 C 34.609375 36.480469 34.261719 36.863281 33.789062 36.871094 C 33.324219 36.878906 32.96875 36.539062 32.960938 36.023438 C 32.9375 34.355469 32.910156 32.6875 32.921875 31.019531 C 32.933594 29.847656 32.898438 28.679688 32.898438 27.511719 C 32.894531 25.914062 32.890625 24.3125 32.894531 22.710938 C 32.894531 22.164062 33.246094 21.78125 33.722656 21.78125 C 34.1875 21.785156 34.527344 22.148438 34.539062 22.6875 C 34.597656 24.886719 34.566406 27.089844 34.558594 29.242188 Z M 34.558594 29.242188 " fill-opacity="1" fill-rule="nonzero"/><path fill="#ffffff" d="M 49.847656 29.679688 C 49 29.679688 48.148438 29.683594 47.300781 29.679688 C 47.128906 29.679688 46.960938 29.648438 46.792969 29.621094 C 46.675781 29.601562 46.566406 29.550781 46.566406 29.410156 C 46.566406 29.269531 46.675781 29.222656 46.792969 29.203125 C 47.21875 29.132812 47.644531 29.070312 48.070312 29.011719 C 49.273438 28.851562 50.476562 28.695312 51.679688 28.546875 C 52.007812 28.507812 52.335938 28.492188 52.664062 28.492188 C 53.203125 28.496094 53.546875 28.757812 53.554688 29.140625 C 53.5625 29.507812 53.25 29.78125 52.734375 29.84375 C 52.351562 29.886719 51.964844 29.890625 51.582031 29.863281 C 51.003906 29.828125 50.425781 29.792969 49.847656 29.757812 C 49.847656 29.734375 49.847656 29.707031 49.847656 29.679688 Z M 49.847656 29.679688 " fill-opacity="1" fill-rule="nonzero"/><path fill="#ffffff" d="M 49.238281 33.144531 C 48.960938 33.125 48.699219 32.964844 48.480469 32.746094 C 48.140625 32.398438 47.8125 32.039062 47.488281 31.675781 C 47.34375 31.519531 47.230469 31.332031 47.382812 31.128906 C 47.535156 30.929688 47.730469 31.03125 47.910156 31.101562 C 48.335938 31.28125 48.765625 31.460938 49.1875 31.648438 C 49.46875 31.777344 49.726562 31.945312 49.867188 32.238281 C 50.09375 32.703125 49.792969 33.164062 49.238281 33.144531 Z M 49.238281 33.144531 " fill-opacity="1" fill-rule="nonzero"/><path fill="#ffffff" d="M 47.273438 27.941406 C 47.167969 27.9375 47.082031 27.9375 47.042969 27.855469 C 46.996094 27.757812 47.035156 27.671875 47.109375 27.613281 C 47.59375 27.246094 48.066406 26.859375 48.570312 26.523438 C 48.871094 26.320312 49.234375 26.429688 49.375 26.6875 C 49.511719 26.945312 49.386719 27.265625 49.078125 27.460938 C 48.890625 27.578125 48.679688 27.613281 48.46875 27.660156 C 48.0625 27.75 47.65625 27.851562 47.273438 27.945312 Z M 47.273438 27.941406 " fill-opacity="1" fill-rule="nonzero"/><path fill="#ffffff" d="M 18.246094 29.988281 C 19.09375 29.988281 19.945312 29.984375 20.792969 29.988281 C 20.964844 29.988281 21.132812 30.019531 21.300781 30.046875 C 21.417969 30.066406 21.527344 30.117188 21.527344 30.257812 C 21.527344 30.398438 21.417969 30.445312 21.300781 30.464844 C 20.875 30.535156 20.449219 30.597656 20.023438 30.65625 C 18.820312 30.816406 17.617188 30.972656 16.414062 31.121094 C 16.085938 31.160156 15.757812 31.175781 15.429688 31.175781 C 14.890625 31.171875 14.546875 30.910156 14.539062 30.527344 C 14.53125 30.160156 14.84375 29.886719 15.359375 29.824219 C 15.742188 29.78125 16.128906 29.777344 16.511719 29.804688 C 17.089844 29.839844 17.667969 29.875 18.246094 29.910156 C 18.246094 29.933594 18.246094 29.960938 18.246094 29.988281 Z M 18.246094 29.988281 " fill-opacity="1" fill-rule="nonzero"/><path fill="#ffffff" d="M 18.855469 26.523438 C 19.132812 26.539062 19.394531 26.703125 19.613281 26.921875 C 19.953125 27.269531 20.28125 27.628906 20.605469 27.988281 C 20.75 28.144531 20.863281 28.335938 20.710938 28.539062 C 20.558594 28.738281 20.363281 28.636719 20.183594 28.5625 C 19.757812 28.386719 19.328125 28.207031 18.90625 28.015625 C 18.625 27.890625 18.367188 27.71875 18.226562 27.429688 C 18.003906 26.964844 18.300781 26.503906 18.855469 26.523438 Z M 18.855469 26.523438 " fill-opacity="1" fill-rule="nonzero"/><path fill="#ffffff" d="M 20.816406 31.726562 C 20.921875 31.730469 21.007812 31.730469 21.050781 31.8125 C 21.097656 31.910156 21.058594 31.996094 20.984375 32.054688 C 20.5 32.421875 20.027344 32.808594 19.523438 33.144531 C 19.21875 33.347656 18.855469 33.238281 18.71875 32.980469 C 18.582031 32.722656 18.703125 32.402344 19.015625 32.207031 C 19.203125 32.089844 19.414062 32.054688 19.625 32.007812 C 20.03125 31.917969 20.4375 31.816406 20.816406 31.722656 Z M 20.816406 31.726562 " fill-opacity="1" fill-rule="nonzero"/></svg>