<svg width="143" height="98" viewBox="0 0 143 98" fill="none" xmlns="http://www.w3.org/2000/svg">
<path d="M27.16 70.42C26.8333 70.42 26.2967 70.3967 25.55 70.35C24.8033 70.3033 24.0333 70.2567 23.24 70.21C22.4467 70.1633 21.6767 70.1167 20.93 70.07C20.1833 70.0233 19.6467 70 19.32 70H17.99C17.6633 70 17.1267 70.0233 16.38 70.07C15.6333 70.1167 14.8633 70.1633 14.07 70.21C13.2767 70.2567 12.5067 70.3033 11.76 70.35C11.0133 70.3967 10.4767 70.42 10.15 70.42L10.01 70.14L10.22 68.88L10.57 68.6C11.13 68.6 11.7833 68.5767 12.53 68.53C13.2767 68.4367 13.86 68.25 14.28 67.97C14.6533 67.69 15.0033 67.2467 15.33 66.64C15.6567 66.0333 15.89 65.1233 16.03 63.91C16.03 63.5833 16.03 63.21 16.03 62.79C16.0767 62.3233 16.1 61.7633 16.1 61.11C16.1467 60.4567 16.17 59.6633 16.17 58.73C16.17 57.7967 16.17 56.63 16.17 55.23V37.03C16.17 36.0967 16.1467 35.0467 16.1 33.88C16.1 32.6667 16.0533 31.4767 15.96 30.31C15.8667 29.2367 15.6567 28.3967 15.33 27.79C15.0033 27.1367 14.6533 26.6467 14.28 26.32C13.86 26.0867 13.4167 25.9233 12.95 25.83C12.53 25.69 11.7367 25.62 10.57 25.62L10.22 25.34L10.01 24.08L10.15 23.8C10.4767 23.8 10.8967 23.8233 11.41 23.87C11.97 23.9167 12.53 23.9633 13.09 24.01C13.6967 24.0567 14.3033 24.1033 14.91 24.15C15.5167 24.1967 16.0767 24.22 16.59 24.22H19.11C19.6233 24.22 20.2067 24.22 20.86 24.22C21.5133 24.22 22.1667 24.22 22.82 24.22C23.52 24.1733 24.15 24.15 24.71 24.15C25.27 24.15 25.7367 24.15 26.11 24.15C29.2367 24.15 31.8733 24.4533 34.02 25.06C36.2133 25.6667 37.9867 26.5067 39.34 27.58C40.6933 28.6067 41.6733 29.8667 42.28 31.36C42.9333 32.8067 43.26 34.37 43.26 36.05C43.26 38.0567 42.8867 39.8067 42.14 41.3C41.44 42.7467 40.53 44.0067 39.41 45.08C38.29 46.1067 37.03 46.9467 35.63 47.6C34.23 48.2067 32.8533 48.6733 31.5 49C32.9933 51.1 34.5333 53.1767 36.12 55.23C37.7067 57.2833 39.34 59.29 41.02 61.25C41.9533 62.3233 42.8167 63.28 43.61 64.12C44.4033 64.96 45.2433 65.6833 46.13 66.29C47.0633 66.8967 48.09 67.3867 49.21 67.76C50.33 68.1333 51.6833 68.4133 53.27 68.6L53.69 68.88L53.83 70.14L53.69 70.42C52.6633 70.4667 51.4967 70.5133 50.19 70.56C48.8833 70.6533 47.8567 70.7 47.11 70.7C45.8967 70.7 44.8467 70.56 43.96 70.28C43.0733 70 42.21 69.5567 41.37 68.95C40.53 68.3433 39.6667 67.55 38.78 66.57C37.94 65.59 36.96 64.4233 35.84 63.07C35.7 62.93 35.28 62.3933 34.58 61.46C33.9267 60.48 33.11 59.3367 32.13 58.03C31.1967 56.6767 30.1933 55.2533 29.12 53.76C28.0933 52.22 27.1367 50.7967 26.25 49.49H21.14C21.14 50.75 21.14 52.1267 21.14 53.62C21.14 55.1133 21.14 56.5367 21.14 57.89C21.1867 59.2433 21.21 60.48 21.21 61.6C21.2567 62.6733 21.3033 63.4433 21.35 63.91C21.4433 65.2633 21.6767 66.22 22.05 66.78C22.4233 67.2933 22.75 67.6667 23.03 67.9C23.45 68.1333 23.87 68.32 24.29 68.46C24.7567 68.5533 25.5967 68.6 26.81 68.6L27.09 68.88L27.3 70.14L27.16 70.42ZM27.51 46.41C31.3833 46.41 34.16 45.5233 35.84 43.75C37.5667 41.93 38.43 39.5033 38.43 36.47C38.43 33.6233 37.45 31.43 35.49 29.89C33.5767 28.35 30.94 27.58 27.58 27.58H21.49C21.3967 28.9333 21.3267 30.0767 21.28 31.01C21.28 31.9433 21.2567 32.76 21.21 33.46C21.1633 34.16 21.14 34.79 21.14 35.35C21.14 35.91 21.14 36.4467 21.14 36.96V43.82C21.14 44.4267 21.1633 44.9167 21.21 45.29C21.2567 45.6167 21.3733 45.8733 21.56 46.06C21.7467 46.2 22.0033 46.2933 22.33 46.34C22.7033 46.3867 23.1933 46.41 23.8 46.41H27.51ZM67.6687 77.7C68.042 74.5733 68.2753 71.1433 68.3687 67.41C68.462 63.63 68.5087 60.0133 68.5087 56.56V35C68.5087 33.8333 68.5087 32.5033 68.5087 31.01C68.5087 29.47 68.462 27.86 68.3687 26.18C68.322 24.5 68.2287 22.8433 68.0887 21.21C67.9953 19.53 67.8553 17.9667 67.6687 16.52L67.7387 16.24H73.0587L73.1987 16.52C72.9653 17.9667 72.802 19.53 72.7087 21.21C72.6153 22.8433 72.522 24.5 72.4287 26.18C72.382 27.86 72.3587 29.47 72.3587 31.01C72.3587 32.5033 72.3587 33.8333 72.3587 35V56.56C72.3587 60.0133 72.4053 63.63 72.4987 67.41C72.592 71.1433 72.8253 74.5733 73.1987 77.7L73.0587 77.98H67.7387L67.6687 77.7ZM109.55 24.08L109.34 25.34L109.06 25.62C108.313 25.62 107.59 25.6667 106.89 25.76C106.237 25.8067 105.7 25.9933 105.28 26.32C104.907 26.6467 104.557 27.0667 104.23 27.58C103.903 28.0933 103.693 29.0033 103.6 30.31C103.553 30.9633 103.507 31.57 103.46 32.13C103.46 32.69 103.437 33.3433 103.39 34.09C103.39 34.8367 103.39 35.7467 103.39 36.82C103.39 37.8933 103.39 39.27 103.39 40.95V45.71C104.65 44.9167 106.167 43.7733 107.94 42.28C109.76 40.7867 111.51 39.2 113.19 37.52C115.197 35.5133 116.877 33.6467 118.23 31.92C119.583 30.1467 120.26 28.9333 120.26 28.28C120.26 27.7667 120.143 27.37 119.91 27.09C119.677 26.7633 119.373 26.5067 119 26.32C118.673 26.1333 118.277 25.9933 117.81 25.9C117.39 25.8067 116.947 25.7133 116.48 25.62L116.13 25.34V24.08L116.48 23.8C118.347 24.08 120.4 24.22 122.64 24.22H126.07C126.63 24.22 127.097 24.22 127.47 24.22C127.89 24.22 128.287 24.1967 128.66 24.15C129.08 24.1033 129.523 24.0567 129.99 24.01C130.457 23.9633 131.017 23.8933 131.67 23.8L131.95 24.08V25.34L131.67 25.62C131.063 25.76 130.247 25.9467 129.22 26.18C128.193 26.3667 127.33 26.6933 126.63 27.16C126.163 27.44 125.627 27.8833 125.02 28.49C124.46 29.0967 123.76 29.8667 122.92 30.8C122.127 31.7333 121.17 32.83 120.05 34.09C118.93 35.35 117.577 36.7733 115.99 38.36L110.39 44.1C114.263 49.98 118.557 55.6967 123.27 61.25C124.203 62.3233 125.067 63.28 125.86 64.12C126.653 64.96 127.493 65.6833 128.38 66.29C129.313 66.8967 130.34 67.3867 131.46 67.76C132.58 68.1333 133.933 68.4133 135.52 68.6L135.94 68.88L136.08 70.14L135.94 70.42C134.913 70.42 133.747 70.4667 132.44 70.56C131.133 70.6533 130.107 70.7 129.36 70.7C128.147 70.7 127.097 70.56 126.21 70.28C125.323 70.0467 124.46 69.6267 123.62 69.02C122.827 68.4133 121.987 67.62 121.1 66.64C120.213 65.66 119.21 64.47 118.09 63.07C117.95 62.8833 117.413 62.16 116.48 60.9C115.547 59.5933 114.473 58.1 113.26 56.42C112.093 54.6933 110.88 52.9667 109.62 51.24C108.407 49.4667 107.427 48.02 106.68 46.9H106.4C105.887 47.2733 105.397 47.6233 104.93 47.95C104.463 48.23 103.95 48.6033 103.39 49.07V53.83C103.39 55.51 103.39 56.8867 103.39 57.96C103.39 58.9867 103.39 59.85 103.39 60.55C103.437 61.25 103.46 61.8567 103.46 62.37C103.507 62.8367 103.553 63.35 103.6 63.91C103.693 65.2167 103.903 66.1267 104.23 66.64C104.557 67.1533 104.907 67.5733 105.28 67.9C105.7 68.2267 106.237 68.4367 106.89 68.53C107.59 68.5767 108.313 68.6 109.06 68.6L109.34 68.88L109.55 70.14L109.41 70.42C109.083 70.42 108.547 70.3967 107.8 70.35C107.053 70.3033 106.283 70.2567 105.49 70.21C104.697 70.1633 103.927 70.1167 103.18 70.07C102.433 70.0233 101.897 70 101.57 70H100.24C99.9133 70 99.3767 70.0233 98.63 70.07C97.8833 70.1167 97.1133 70.1633 96.32 70.21C95.5267 70.2567 94.7567 70.3033 94.01 70.35C93.2633 70.3967 92.7267 70.42 92.4 70.42L92.26 70.14L92.47 68.88L92.82 68.6C93.5667 68.6 94.2667 68.5767 94.92 68.53C95.5733 68.4367 96.11 68.2267 96.53 67.9C96.9033 67.5733 97.2533 67.1533 97.58 66.64C97.9533 66.1267 98.1867 65.2167 98.28 63.91C98.28 63.5833 98.28 63.21 98.28 62.79C98.3267 62.3233 98.35 61.7633 98.35 61.11C98.3967 60.4567 98.42 59.6633 98.42 58.73C98.42 57.7967 98.42 56.63 98.42 55.23V41.02C98.42 39.3867 98.42 38.01 98.42 36.89C98.42 35.77 98.42 34.8133 98.42 34.02C98.42 33.2267 98.3967 32.55 98.35 31.99C98.35 31.43 98.3267 30.87 98.28 30.31C98.1867 29.05 97.9533 28.1633 97.58 27.65C97.2533 27.09 96.9033 26.6467 96.53 26.32C96.11 25.9933 95.5733 25.8067 94.92 25.76C94.2667 25.6667 93.5667 25.62 92.82 25.62L92.47 25.34L92.26 24.08L92.4 23.8C92.7267 23.8 93.2633 23.8233 94.01 23.87C94.7567 23.9167 95.5267 23.9633 96.32 24.01C97.1133 24.0567 97.8833 24.1033 98.63 24.15C99.3767 24.1967 99.9133 24.22 100.24 24.22H101.57C101.897 24.22 102.433 24.1967 103.18 24.15C103.927 24.1033 104.697 24.0567 105.49 24.01C106.283 23.9633 107.053 23.9167 107.8 23.87C108.547 23.8233 109.083 23.8 109.41 23.8L109.55 24.08Z" fill="#082105"/>
</svg>
